<svg width="23" height="24" fill="none" xmlns="http://www.w3.org/2000/svg">
  <path fill-rule="evenodd" clip-rule="evenodd" d="M17.8761 2.71592c-.0127.75221-.3415 1.46432-.9058 1.96181-.8097.61931-1.8998.72791-2.8157.2805-.9159-.4474-1.5003-1.37398-1.5095-2.39328.0166-.74067.3235-1.44518.8545-1.961805.4735-.375207 1.0559-.5868153 1.6598-.6031026.7213-.0028645 1.4138.2823266 1.9239.7922526.5101.509925.7954 1.202385.7928 1.923625Zm-9.70406 2.4743c.02659-.01636.04597-.02828.04597-.05959l-.00536-.00307c1.78336-.29968 3.61435.07718 5.13445 1.05677.3292.16533.6483.35008.9556.55329.0757.01253.1459.0475.2015.10039h-.0498c-.0259.02548-.0387.03813-.0514.05087-.0126.01255-.025.02519-.0497.05029 1.0723.70258 2.4094.8695 3.6216.45213h.0506c0-.03147.0193-.04336.0461-.05985.0162-.01001.0352-.02172.0543-.04054.8248-.3348 1.5273-.91404 2.0132-1.65987a.709437.709437 0 0 1 .1532-.20231c1.1066-.85446 2.968.40309 2.0116 1.66064-.3846.57534-.8409 1.09938-1.3579 1.55948-1.6724 1.44885-3.9772 1.92525-6.087 1.25832-.905 1.55953-1.7602 3.11893-2.6162 4.72823.3533.2008.705.4024 1.0069.6039l-.1004.1004c.9082.6046 1.8109 1.3089 2.3642 1.7625.7468.5529 1.6168 2.4884 2.2975 4.0028.1902.4232.3657.8136.5195 1.1317.275.474.1919 1.0744-.2015 1.456-.3266.2626-.7542.3642-1.164.2765-.4098-.0877-.7583-.3554-.9488-.7286-.1122-.2436-.2401-.5303-.3777-.8391-.603-1.3529-1.3943-3.128-1.8853-3.5367a17.468159 17.468159 0 0 0-4.17649-2.466c-.02338 0-.06013-.0121-.09746-.0244-.03851-.0126-.07763-.0255-.10331-.0255-2.09929 2.617-5.78896 3.3206-8.70399 1.6599-.433401-.2644-.6900306-.7425-.6709561-1.2498.0190744-.5074.3108731-.9648.7629071-1.1959.452029-.2312.993699-.2 1.416189.0816 2.31508 1.3081 4.67845-.4023 5.7858-2.5657 1.05677-2.1158 1.86218-3.62167 2.71741-5.18115-1.71122-.55406-3.2707-.05211-4.52749 1.71045-.95638 1.4077-3.32051.04981-2.31508-1.35871.40039-.56333.85551-1.0857 1.3587-1.55948.8335-.71558 1.83942-1.2011 2.91819-1.40852v-.05057c.01898-.01898.03806-.03073.05442-.0408Z" fill="#fff"/>
</svg>